<?xml version="1.0" standalone="no"?>
<!DOCTYPE svg PUBLIC "-//W3C//DTD SVG 20010904//EN"
 "http://www.w3.org/TR/2001/REC-SVG-20010904/DTD/svg10.dtd">
<svg version="1.0" xmlns="http://www.w3.org/2000/svg"
 width="533.000000pt" height="540.000000pt" viewBox="0 0 533.000000 540.000000"
 preserveAspectRatio="xMidYMid meet">

<g transform="translate(0.000000,540.000000) scale(0.100000,-0.100000)"
fill="#6C757D" stroke="none">
<path d="M1558 3929 c-266 -22 -485 -126 -591 -281 -76 -111 -80 -133 -85
-500 l-4 -328 541 0 541 0 0 425 c0 412 1 426 20 445 19 19 33 20 348 20 l329
0 21 -23 22 -24 -2 -785 c-3 -757 -4 -787 -22 -807 -18 -20 -28 -21 -230 -21
-179 0 -215 2 -235 16 -31 22 -51 73 -51 132 0 69 -26 211 -51 277 -13 35 -41
77 -75 114 -55 60 -74 95 -74 137 l0 24 -540 0 -539 0 -3 -82 -3 -83 -33 -3
-33 -3 3 -92 3 -92 33 -3 32 -3 0 -265 0 -264 1350 0 1350 0 0 33 c0 17 7 57
15 87 68 258 319 427 578 391 94 -13 159 -35 218 -72 32 -20 59 -29 88 -29 39
0 42 2 35 23 -24 78 -90 150 -181 195 -73 38 -191 65 -254 59 l-58 -5 11 24
c12 26 15 27 101 44 l57 11 0 88 0 88 -39 7 -38 6 -6 58 c-15 137 -119 371
-278 621 -163 256 -290 407 -365 432 -31 11 -222 14 -924 15 -487 1 -929 -2
-982 -7z m1822 -237 c21 -17 25 -40 57 -318 18 -164 31 -314 28 -332 -4 -23
-16 -39 -38 -52 -29 -18 -52 -20 -269 -20 l-238 0 -32 29 -33 29 -3 321 c-3
311 -2 321 18 341 19 19 32 20 254 20 212 0 236 -2 256 -18z m264 -25 c79
-113 149 -222 206 -322 62 -107 124 -234 118 -240 -6 -5 -261 -55 -283 -55
-44 0 -54 29 -105 291 -59 298 -60 320 -24 348 38 30 55 26 88 -22z"/>
<path d="M4025 2298 c-130 -17 -256 -115 -318 -245 -40 -86 -49 -211 -22 -292
55 -167 181 -276 347 -302 279 -43 528 209 481 487 -41 235 -246 384 -488 352z
m118 -292 c18 -7 43 -26 57 -41 21 -22 25 -37 25 -85 0 -48 -4 -63 -25 -85
-28 -30 -78 -55 -111 -55 -11 0 -37 8 -56 17 -109 51 -95 216 22 252 42 13 52
13 88 -3z"/>
<path d="M1016 1763 c4 -16 20 -54 37 -85 80 -154 262 -246 432 -219 168 27
315 154 351 304 l6 27 -416 0 -416 0 6 -27z"/>
</g>
</svg>
